<?xml version="1.0" standalone="no"?><!-- Generator: Gravit.io --><svg xmlns="http://www.w3.org/2000/svg" xmlns:xlink="http://www.w3.org/1999/xlink" style="isolation:isolate" viewBox="0 0 48.352 50.206" width="48.352" height="50.206"><defs><clipPath id="_clipPath_GtMtfknHUWJHW2eay7zni8ADh6B3x9OL"><rect width="48.352" height="50.206"/></clipPath></defs><g clip-path="url(#_clipPath_GtMtfknHUWJHW2eay7zni8ADh6B3x9OL)"><path d="M 0.573 3.483 L 44.808 49.573 C 45.595 50.393 46.899 50.42 47.719 49.633 L 47.719 49.633 C 48.539 48.846 48.565 47.542 47.779 46.722 L 3.543 0.633 C 2.757 -0.187 1.452 -0.214 0.633 0.573 L 0.633 0.573 C -0.187 1.36 -0.214 2.664 0.573 3.483 Z" style="stroke:none;fill:#EEF0F0;stroke-miterlimit:10;"/><path d="M 47.779 3.483 L 3.543 49.573 C 2.757 50.393 1.452 50.42 0.633 49.633 L 0.633 49.633 C -0.187 48.846 -0.214 47.542 0.573 46.722 L 44.808 0.633 C 45.595 -0.187 46.899 -0.214 47.719 0.573 L 47.719 0.573 C 48.539 1.36 48.565 2.664 47.779 3.483 Z" style="stroke:none;fill:#EEF0F0;stroke-miterlimit:10;"/></g></svg>