<?xml version="1.0" standalone="no"?><!-- Generator: Gravit.io --><svg xmlns="http://www.w3.org/2000/svg" xmlns:xlink="http://www.w3.org/1999/xlink" style="isolation:isolate" viewBox="0 0 48.352 50.206" width="48.352" height="50.206"><defs><clipPath id="_clipPath_c9tlQgR7S2eYKEUABxes9u1o116SJTP5"><rect width="48.352" height="50.206"/></clipPath></defs><g clip-path="url(#_clipPath_c9tlQgR7S2eYKEUABxes9u1o116SJTP5)"><path d="M 47.427 43.161 L 1.751 43.161 C 0.784 43.161 0 42.377 0 41.411 L 0 40.795 C 0 39.829 0.784 39.044 1.751 39.044 L 47.427 39.044 C 48.393 39.044 49.178 39.829 49.178 40.795 L 49.178 41.411 C 49.178 42.377 48.393 43.161 47.427 43.161 Z" style="stroke:none;fill:#EEF0F0;stroke-miterlimit:10;"/><path d="M 47.427 11.161 L 1.751 11.161 C 0.784 11.161 0 10.377 0 9.411 L 0 8.795 C 0 7.829 0.784 7.044 1.751 7.044 L 47.427 7.044 C 48.393 7.044 49.178 7.829 49.178 8.795 L 49.178 9.411 C 49.178 10.377 48.393 11.161 47.427 11.161 Z" style="stroke:none;fill:#EEF0F0;stroke-miterlimit:10;"/><path d="M 47.427 27.161 L 1.751 27.161 C 0.784 27.161 0 26.377 0 25.411 L 0 24.795 C 0 23.829 0.784 23.044 1.751 23.044 L 47.427 23.044 C 48.393 23.044 49.178 23.829 49.178 24.795 L 49.178 25.411 C 49.178 26.377 48.393 27.161 47.427 27.161 Z" style="stroke:none;fill:#EEF0F0;stroke-miterlimit:10;"/></g></svg>