<?xml version="1.0" standalone="no"?><!-- Generator: Gravit.io --><svg xmlns="http://www.w3.org/2000/svg" xmlns:xlink="http://www.w3.org/1999/xlink" style="isolation:isolate" viewBox="0 0 126.218 68.876" width="126.218" height="68.876"><defs><clipPath id="_clipPath_ypxmaXnJ3we3OeIYFea2x7Ao25jdo75D"><rect width="126.218" height="68.876"/></clipPath></defs><g clip-path="url(#_clipPath_ypxmaXnJ3we3OeIYFea2x7Ao25jdo75D)"><path d=" M 62.825 35.464 C 62.953 31.552 76.76 19.793 80.616 14.972 C 85.537 8.206 79.197 -2.455 68.88 3.003 C 58.562 8.462 59.564 18.869 63.616 11.917 C 67.668 4.966 79.768 5.021 72.58 15.197 C 65.392 25.373 60.029 27.015 59.377 34.202 C 58.725 41.39 62.697 39.376 62.825 35.464 Z " fill="rgb(238,240,240)" vector-effect="non-scaling-stroke" stroke-width="1" stroke="rgb(238,240,240)" stroke-linejoin="miter" stroke-linecap="square" stroke-miterlimit="3"/><path d=" M 7.323 66.795 C -3.654 67.862 0.919 68.745 1.08 68.753 C 12.923 69.318 18.782 67.859 25.559 65.857 C 36.496 62.211 45.953 57.148 55.777 53.873 C 59.926 52.491 75.991 64.868 81.882 66.551 C 96.108 70.616 103.346 68.468 115.868 64.294 C 133.333 58.472 126.182 53.797 112.915 57.521 C 99.397 61.993 86.182 58.797 75.882 51.697 C 66.982 46.297 67.831 38.305 55.604 43.453 C 52.447 44.782 49.733 46.823 46.746 48.316 C 35.745 53.817 26.812 59.058 16.08 63.795 C 12.935 65.282 10.521 66.29 7.323 66.795" fill="rgb(238,240,240)"/></g></svg>